<mxfile host="Electron" agent="Mozilla/5.0 (Windows NT 10.0; Win64; x64) AppleWebKit/537.36 (KHTML, like Gecko) draw.io/27.0.9 Chrome/134.0.6998.205 Electron/35.4.0 Safari/537.36" version="27.0.9">
  <diagram name="Page-1" id="guALrVoAFo2VZ9e-PVBr">
    <mxGraphModel dx="1843" dy="1252" grid="1" gridSize="10" guides="1" tooltips="1" connect="1" arrows="1" fold="1" page="1" pageScale="1" pageWidth="850" pageHeight="1100" math="0" shadow="0">
      <root>
        <mxCell id="0" />
        <mxCell id="1" parent="0" />
        <mxCell id="lI8Eclsu2cXkh1f-DFCO-34" value="" style="group" parent="1" vertex="1" connectable="0">
          <mxGeometry x="40" y="40" width="720" height="720" as="geometry" />
        </mxCell>
        <mxCell id="lI8Eclsu2cXkh1f-DFCO-13" value="" style="group" parent="lI8Eclsu2cXkh1f-DFCO-34" vertex="1" connectable="0">
          <mxGeometry width="720" height="720" as="geometry" />
        </mxCell>
        <mxCell id="lI8Eclsu2cXkh1f-DFCO-3" value="" style="ellipse;whiteSpace=wrap;html=1;aspect=fixed;fillColor=none;strokeWidth=3;" parent="lI8Eclsu2cXkh1f-DFCO-13" vertex="1">
          <mxGeometry width="720" height="720" as="geometry" />
        </mxCell>
        <mxCell id="lI8Eclsu2cXkh1f-DFCO-2" value="" style="ellipse;whiteSpace=wrap;html=1;aspect=fixed;fillColor=none;strokeWidth=3;" parent="lI8Eclsu2cXkh1f-DFCO-13" vertex="1">
          <mxGeometry x="80" y="80" width="560" height="560" as="geometry" />
        </mxCell>
        <mxCell id="lI8Eclsu2cXkh1f-DFCO-1" value="" style="ellipse;whiteSpace=wrap;html=1;aspect=fixed;fillColor=none;strokeWidth=3;" parent="lI8Eclsu2cXkh1f-DFCO-13" vertex="1">
          <mxGeometry x="160" y="160" width="400" height="400" as="geometry" />
        </mxCell>
        <mxCell id="lI8Eclsu2cXkh1f-DFCO-49" value="" style="group" parent="lI8Eclsu2cXkh1f-DFCO-13" vertex="1" connectable="0">
          <mxGeometry x="11.998153700972125" y="11.998153700972068" width="696.0018462990279" height="696.0018462990278" as="geometry" />
        </mxCell>
        <mxCell id="lI8Eclsu2cXkh1f-DFCO-43" value="" style="endArrow=none;html=1;rounded=0;entryX=0.5;entryY=0;entryDx=0;entryDy=0;exitX=0.5;exitY=1;exitDx=0;exitDy=0;" parent="lI8Eclsu2cXkh1f-DFCO-49" edge="1">
          <mxGeometry width="50" height="50" relative="1" as="geometry">
            <mxPoint x="441" y="695.9999999999999" as="sourcePoint" />
            <mxPoint x="255" as="targetPoint" />
          </mxGeometry>
        </mxCell>
        <mxCell id="lI8Eclsu2cXkh1f-DFCO-44" value="" style="endArrow=none;html=1;rounded=0;entryX=1;entryY=0.5;entryDx=0;entryDy=0;exitX=0;exitY=0.5;exitDx=0;exitDy=0;" parent="lI8Eclsu2cXkh1f-DFCO-49" edge="1">
          <mxGeometry width="50" height="50" relative="1" as="geometry">
            <mxPoint y="441" as="sourcePoint" />
            <mxPoint x="696" y="255" as="targetPoint" />
          </mxGeometry>
        </mxCell>
        <mxCell id="lI8Eclsu2cXkh1f-DFCO-46" value="" style="endArrow=none;html=1;rounded=0;entryX=0.5;entryY=0;entryDx=0;entryDy=0;exitX=0.5;exitY=1;exitDx=0;exitDy=0;" parent="lI8Eclsu2cXkh1f-DFCO-49" edge="1">
          <mxGeometry width="50" height="50" relative="1" as="geometry">
            <mxPoint x="92.09000000000015" y="602.09" as="sourcePoint" />
            <mxPoint x="602.0900000000001" y="92.09000000000003" as="targetPoint" />
          </mxGeometry>
        </mxCell>
        <mxCell id="lI8Eclsu2cXkh1f-DFCO-47" value="" style="endArrow=none;html=1;rounded=0;entryX=1;entryY=0.5;entryDx=0;entryDy=0;exitX=0;exitY=0.5;exitDx=0;exitDy=0;" parent="lI8Eclsu2cXkh1f-DFCO-49" edge="1">
          <mxGeometry width="50" height="50" relative="1" as="geometry">
            <mxPoint x="92.09000000000015" y="92.09000000000003" as="sourcePoint" />
            <mxPoint x="602.0900000000001" y="602.09" as="targetPoint" />
          </mxGeometry>
        </mxCell>
        <mxCell id="lI8Eclsu2cXkh1f-DFCO-38" value="" style="endArrow=none;html=1;rounded=0;entryX=0.5;entryY=0;entryDx=0;entryDy=0;exitX=0.5;exitY=1;exitDx=0;exitDy=0;" parent="lI8Eclsu2cXkh1f-DFCO-49" edge="1">
          <mxGeometry width="50" height="50" relative="1" as="geometry">
            <mxPoint x="255.00184629902787" y="696.0018462990278" as="sourcePoint" />
            <mxPoint x="441.0018462990279" y="0.0018462990278749203" as="targetPoint" />
          </mxGeometry>
        </mxCell>
        <mxCell id="lI8Eclsu2cXkh1f-DFCO-39" value="" style="endArrow=none;html=1;rounded=0;entryX=1;entryY=0.5;entryDx=0;entryDy=0;exitX=0;exitY=0.5;exitDx=0;exitDy=0;" parent="lI8Eclsu2cXkh1f-DFCO-49" edge="1">
          <mxGeometry width="50" height="50" relative="1" as="geometry">
            <mxPoint x="0.0018462990278749203" y="255.00184629902787" as="sourcePoint" />
            <mxPoint x="696.0018462990279" y="441.0018462990279" as="targetPoint" />
          </mxGeometry>
        </mxCell>
        <mxCell id="5tonmp-MWLGBSI9gHame-66" value="Chords in the major scale" style="ellipse;whiteSpace=wrap;html=1;aspect=fixed;fontSize=28;fillColor=#ffe6cc;strokeColor=#d79b00;" parent="lI8Eclsu2cXkh1f-DFCO-49" vertex="1">
          <mxGeometry x="228.00184629902787" y="228.00184629902793" width="240" height="240" as="geometry" />
        </mxCell>
        <mxCell id="5tonmp-MWLGBSI9gHame-1" value="I" style="ellipse;whiteSpace=wrap;html=1;aspect=fixed;fontSize=24;fillColor=#f8cecc;strokeColor=#b85450;" parent="lI8Eclsu2cXkh1f-DFCO-13" vertex="1">
          <mxGeometry x="330" y="10" width="60" height="60" as="geometry" />
        </mxCell>
        <mxCell id="5tonmp-MWLGBSI9gHame-20" value="vi" style="ellipse;whiteSpace=wrap;html=1;aspect=fixed;fontSize=24;fillColor=#d5e8d4;strokeColor=#82b366;" parent="lI8Eclsu2cXkh1f-DFCO-13" vertex="1">
          <mxGeometry x="330" y="90" width="60" height="60" as="geometry" />
        </mxCell>
        <mxCell id="5tonmp-MWLGBSI9gHame-45" value="iii" style="ellipse;whiteSpace=wrap;html=1;aspect=fixed;fontSize=24;fillColor=#d5e8d4;strokeColor=#82b366;" parent="lI8Eclsu2cXkh1f-DFCO-13" vertex="1">
          <mxGeometry x="450" y="120" width="60" height="60" as="geometry" />
        </mxCell>
        <mxCell id="5tonmp-MWLGBSI9gHame-44" value="ii" style="ellipse;whiteSpace=wrap;html=1;aspect=fixed;fontSize=24;fillColor=#d5e8d4;strokeColor=#82b366;" parent="lI8Eclsu2cXkh1f-DFCO-13" vertex="1">
          <mxGeometry x="210" y="120" width="60" height="60" as="geometry" />
        </mxCell>
        <mxCell id="5tonmp-MWLGBSI9gHame-22" value="IV" style="ellipse;whiteSpace=wrap;html=1;aspect=fixed;fontSize=24;fillColor=#f8cecc;strokeColor=#b85450;" parent="lI8Eclsu2cXkh1f-DFCO-13" vertex="1">
          <mxGeometry x="170" y="50" width="60" height="60" as="geometry" />
        </mxCell>
        <mxCell id="5tonmp-MWLGBSI9gHame-21" value="V" style="ellipse;whiteSpace=wrap;html=1;aspect=fixed;fontSize=24;fillColor=#f8cecc;strokeColor=#b85450;" parent="lI8Eclsu2cXkh1f-DFCO-13" vertex="1">
          <mxGeometry x="490" y="50" width="60" height="60" as="geometry" />
        </mxCell>
        <mxCell id="5tonmp-MWLGBSI9gHame-46" value="vii⁰" style="ellipse;whiteSpace=wrap;html=1;aspect=fixed;fontSize=24;fillColor=#dae8fc;strokeColor=#6c8ebf;" parent="lI8Eclsu2cXkh1f-DFCO-13" vertex="1">
          <mxGeometry x="540" y="210" width="60" height="60" as="geometry" />
        </mxCell>
        <mxCell id="5tonmp-MWLGBSI9gHame-47" value="" style="group" parent="1" vertex="1" connectable="0">
          <mxGeometry x="40" y="840" width="720" height="720" as="geometry" />
        </mxCell>
        <mxCell id="5tonmp-MWLGBSI9gHame-48" value="" style="group" parent="5tonmp-MWLGBSI9gHame-47" vertex="1" connectable="0">
          <mxGeometry width="720" height="720" as="geometry" />
        </mxCell>
        <mxCell id="5tonmp-MWLGBSI9gHame-49" value="" style="ellipse;whiteSpace=wrap;html=1;aspect=fixed;fillColor=none;strokeWidth=3;" parent="5tonmp-MWLGBSI9gHame-48" vertex="1">
          <mxGeometry width="720" height="720" as="geometry" />
        </mxCell>
        <mxCell id="5tonmp-MWLGBSI9gHame-50" value="" style="ellipse;whiteSpace=wrap;html=1;aspect=fixed;fillColor=none;strokeWidth=3;" parent="5tonmp-MWLGBSI9gHame-48" vertex="1">
          <mxGeometry x="80" y="80" width="560" height="560" as="geometry" />
        </mxCell>
        <mxCell id="5tonmp-MWLGBSI9gHame-51" value="" style="ellipse;whiteSpace=wrap;html=1;aspect=fixed;fillColor=none;strokeWidth=3;" parent="5tonmp-MWLGBSI9gHame-48" vertex="1">
          <mxGeometry x="160" y="160" width="400" height="400" as="geometry" />
        </mxCell>
        <mxCell id="5tonmp-MWLGBSI9gHame-52" value="" style="group" parent="5tonmp-MWLGBSI9gHame-48" vertex="1" connectable="0">
          <mxGeometry x="11.998153700972125" y="11.998153700972068" width="696.0018462990279" height="696.0018462990278" as="geometry" />
        </mxCell>
        <mxCell id="5tonmp-MWLGBSI9gHame-53" value="" style="endArrow=none;html=1;rounded=0;entryX=0.5;entryY=0;entryDx=0;entryDy=0;exitX=0.5;exitY=1;exitDx=0;exitDy=0;" parent="5tonmp-MWLGBSI9gHame-52" edge="1">
          <mxGeometry width="50" height="50" relative="1" as="geometry">
            <mxPoint x="441" y="695.9999999999999" as="sourcePoint" />
            <mxPoint x="255" as="targetPoint" />
          </mxGeometry>
        </mxCell>
        <mxCell id="5tonmp-MWLGBSI9gHame-54" value="" style="endArrow=none;html=1;rounded=0;entryX=1;entryY=0.5;entryDx=0;entryDy=0;exitX=0;exitY=0.5;exitDx=0;exitDy=0;" parent="5tonmp-MWLGBSI9gHame-52" edge="1">
          <mxGeometry width="50" height="50" relative="1" as="geometry">
            <mxPoint y="441" as="sourcePoint" />
            <mxPoint x="696" y="255" as="targetPoint" />
          </mxGeometry>
        </mxCell>
        <mxCell id="5tonmp-MWLGBSI9gHame-55" value="" style="endArrow=none;html=1;rounded=0;entryX=0.5;entryY=0;entryDx=0;entryDy=0;exitX=0.5;exitY=1;exitDx=0;exitDy=0;" parent="5tonmp-MWLGBSI9gHame-52" edge="1">
          <mxGeometry width="50" height="50" relative="1" as="geometry">
            <mxPoint x="92.09000000000015" y="602.09" as="sourcePoint" />
            <mxPoint x="602.0900000000001" y="92.09000000000003" as="targetPoint" />
          </mxGeometry>
        </mxCell>
        <mxCell id="5tonmp-MWLGBSI9gHame-56" value="" style="endArrow=none;html=1;rounded=0;entryX=1;entryY=0.5;entryDx=0;entryDy=0;exitX=0;exitY=0.5;exitDx=0;exitDy=0;" parent="5tonmp-MWLGBSI9gHame-52" edge="1">
          <mxGeometry width="50" height="50" relative="1" as="geometry">
            <mxPoint x="92.09000000000015" y="92.09000000000003" as="sourcePoint" />
            <mxPoint x="602.0900000000001" y="602.09" as="targetPoint" />
          </mxGeometry>
        </mxCell>
        <mxCell id="5tonmp-MWLGBSI9gHame-57" value="" style="endArrow=none;html=1;rounded=0;entryX=0.5;entryY=0;entryDx=0;entryDy=0;exitX=0.5;exitY=1;exitDx=0;exitDy=0;" parent="5tonmp-MWLGBSI9gHame-52" edge="1">
          <mxGeometry width="50" height="50" relative="1" as="geometry">
            <mxPoint x="255.00184629902787" y="696.0018462990278" as="sourcePoint" />
            <mxPoint x="441.0018462990279" y="0.0018462990278749203" as="targetPoint" />
          </mxGeometry>
        </mxCell>
        <mxCell id="5tonmp-MWLGBSI9gHame-58" value="" style="endArrow=none;html=1;rounded=0;entryX=1;entryY=0.5;entryDx=0;entryDy=0;exitX=0;exitY=0.5;exitDx=0;exitDy=0;" parent="5tonmp-MWLGBSI9gHame-52" edge="1">
          <mxGeometry width="50" height="50" relative="1" as="geometry">
            <mxPoint x="0.0018462990278749203" y="255.00184629902787" as="sourcePoint" />
            <mxPoint x="696.0018462990279" y="441.0018462990279" as="targetPoint" />
          </mxGeometry>
        </mxCell>
        <mxCell id="5tonmp-MWLGBSI9gHame-67" value="Chords in the minor scale" style="ellipse;whiteSpace=wrap;html=1;aspect=fixed;fontSize=28;fillColor=#ffe6cc;strokeColor=#d79b00;" parent="5tonmp-MWLGBSI9gHame-52" vertex="1">
          <mxGeometry x="228.00184629902787" y="228.00184629902787" width="240" height="240" as="geometry" />
        </mxCell>
        <mxCell id="5tonmp-MWLGBSI9gHame-59" value="III" style="ellipse;whiteSpace=wrap;html=1;aspect=fixed;fontSize=24;fillColor=#f8cecc;strokeColor=#b85450;" parent="5tonmp-MWLGBSI9gHame-48" vertex="1">
          <mxGeometry x="330" y="10" width="60" height="60" as="geometry" />
        </mxCell>
        <mxCell id="5tonmp-MWLGBSI9gHame-60" value="i" style="ellipse;whiteSpace=wrap;html=1;aspect=fixed;fontSize=24;fillColor=#d5e8d4;strokeColor=#82b366;" parent="5tonmp-MWLGBSI9gHame-48" vertex="1">
          <mxGeometry x="330" y="90" width="60" height="60" as="geometry" />
        </mxCell>
        <mxCell id="5tonmp-MWLGBSI9gHame-61" value="v" style="ellipse;whiteSpace=wrap;html=1;aspect=fixed;fontSize=24;fillColor=#d5e8d4;strokeColor=#82b366;" parent="5tonmp-MWLGBSI9gHame-48" vertex="1">
          <mxGeometry x="450" y="120" width="60" height="60" as="geometry" />
        </mxCell>
        <mxCell id="5tonmp-MWLGBSI9gHame-62" value="iv" style="ellipse;whiteSpace=wrap;html=1;aspect=fixed;fontSize=24;fillColor=#d5e8d4;strokeColor=#82b366;" parent="5tonmp-MWLGBSI9gHame-48" vertex="1">
          <mxGeometry x="210" y="120" width="60" height="60" as="geometry" />
        </mxCell>
        <mxCell id="5tonmp-MWLGBSI9gHame-63" value="VI" style="ellipse;whiteSpace=wrap;html=1;aspect=fixed;fontSize=24;fillColor=#f8cecc;strokeColor=#b85450;" parent="5tonmp-MWLGBSI9gHame-48" vertex="1">
          <mxGeometry x="170" y="50" width="60" height="60" as="geometry" />
        </mxCell>
        <mxCell id="5tonmp-MWLGBSI9gHame-64" value="VII" style="ellipse;whiteSpace=wrap;html=1;aspect=fixed;fontSize=24;fillColor=#f8cecc;strokeColor=#b85450;" parent="5tonmp-MWLGBSI9gHame-48" vertex="1">
          <mxGeometry x="490" y="50" width="60" height="60" as="geometry" />
        </mxCell>
        <mxCell id="5tonmp-MWLGBSI9gHame-65" value="ii⁰" style="ellipse;whiteSpace=wrap;html=1;aspect=fixed;fontSize=24;fillColor=#dae8fc;strokeColor=#6c8ebf;" parent="5tonmp-MWLGBSI9gHame-48" vertex="1">
          <mxGeometry x="540" y="210" width="60" height="60" as="geometry" />
        </mxCell>
        <mxCell id="jIGUXJmBeiqp-Y0XQhzE-1" value="" style="group" parent="1" vertex="1" connectable="0">
          <mxGeometry x="960" y="40" width="720" height="720" as="geometry" />
        </mxCell>
        <mxCell id="jIGUXJmBeiqp-Y0XQhzE-2" value="" style="group" parent="jIGUXJmBeiqp-Y0XQhzE-1" vertex="1" connectable="0">
          <mxGeometry width="720" height="720" as="geometry" />
        </mxCell>
        <mxCell id="jIGUXJmBeiqp-Y0XQhzE-3" value="" style="ellipse;whiteSpace=wrap;html=1;aspect=fixed;fillColor=none;strokeWidth=3;" parent="jIGUXJmBeiqp-Y0XQhzE-2" vertex="1">
          <mxGeometry width="720" height="720" as="geometry" />
        </mxCell>
        <mxCell id="jIGUXJmBeiqp-Y0XQhzE-4" value="" style="ellipse;whiteSpace=wrap;html=1;aspect=fixed;fillColor=none;strokeWidth=3;" parent="jIGUXJmBeiqp-Y0XQhzE-2" vertex="1">
          <mxGeometry x="80" y="80" width="560" height="560" as="geometry" />
        </mxCell>
        <mxCell id="jIGUXJmBeiqp-Y0XQhzE-5" value="" style="ellipse;whiteSpace=wrap;html=1;aspect=fixed;fillColor=none;strokeWidth=3;" parent="jIGUXJmBeiqp-Y0XQhzE-2" vertex="1">
          <mxGeometry x="160" y="160" width="400" height="400" as="geometry" />
        </mxCell>
        <mxCell id="jIGUXJmBeiqp-Y0XQhzE-6" value="" style="group" parent="jIGUXJmBeiqp-Y0XQhzE-2" vertex="1" connectable="0">
          <mxGeometry x="11.998153700972125" y="11.998153700972068" width="696.0018462990279" height="696.0018462990278" as="geometry" />
        </mxCell>
        <mxCell id="jIGUXJmBeiqp-Y0XQhzE-7" value="" style="endArrow=none;html=1;rounded=0;entryX=0.5;entryY=0;entryDx=0;entryDy=0;exitX=0.5;exitY=1;exitDx=0;exitDy=0;" parent="jIGUXJmBeiqp-Y0XQhzE-6" edge="1">
          <mxGeometry width="50" height="50" relative="1" as="geometry">
            <mxPoint x="441" y="695.9999999999999" as="sourcePoint" />
            <mxPoint x="255" as="targetPoint" />
          </mxGeometry>
        </mxCell>
        <mxCell id="jIGUXJmBeiqp-Y0XQhzE-8" value="" style="endArrow=none;html=1;rounded=0;entryX=1;entryY=0.5;entryDx=0;entryDy=0;exitX=0;exitY=0.5;exitDx=0;exitDy=0;" parent="jIGUXJmBeiqp-Y0XQhzE-6" edge="1">
          <mxGeometry width="50" height="50" relative="1" as="geometry">
            <mxPoint y="441" as="sourcePoint" />
            <mxPoint x="696" y="255" as="targetPoint" />
          </mxGeometry>
        </mxCell>
        <mxCell id="jIGUXJmBeiqp-Y0XQhzE-9" value="" style="endArrow=none;html=1;rounded=0;entryX=0.5;entryY=0;entryDx=0;entryDy=0;exitX=0.5;exitY=1;exitDx=0;exitDy=0;" parent="jIGUXJmBeiqp-Y0XQhzE-6" edge="1">
          <mxGeometry width="50" height="50" relative="1" as="geometry">
            <mxPoint x="92.09000000000015" y="602.09" as="sourcePoint" />
            <mxPoint x="602.0900000000001" y="92.09000000000003" as="targetPoint" />
          </mxGeometry>
        </mxCell>
        <mxCell id="jIGUXJmBeiqp-Y0XQhzE-10" value="" style="endArrow=none;html=1;rounded=0;entryX=1;entryY=0.5;entryDx=0;entryDy=0;exitX=0;exitY=0.5;exitDx=0;exitDy=0;" parent="jIGUXJmBeiqp-Y0XQhzE-6" edge="1">
          <mxGeometry width="50" height="50" relative="1" as="geometry">
            <mxPoint x="92.09000000000015" y="92.09000000000003" as="sourcePoint" />
            <mxPoint x="602.0900000000001" y="602.09" as="targetPoint" />
          </mxGeometry>
        </mxCell>
        <mxCell id="jIGUXJmBeiqp-Y0XQhzE-11" value="" style="endArrow=none;html=1;rounded=0;entryX=0.5;entryY=0;entryDx=0;entryDy=0;exitX=0.5;exitY=1;exitDx=0;exitDy=0;" parent="jIGUXJmBeiqp-Y0XQhzE-6" edge="1">
          <mxGeometry width="50" height="50" relative="1" as="geometry">
            <mxPoint x="255.00184629902787" y="696.0018462990278" as="sourcePoint" />
            <mxPoint x="441.0018462990279" y="0.0018462990278749203" as="targetPoint" />
          </mxGeometry>
        </mxCell>
        <mxCell id="jIGUXJmBeiqp-Y0XQhzE-12" value="" style="endArrow=none;html=1;rounded=0;entryX=1;entryY=0.5;entryDx=0;entryDy=0;exitX=0;exitY=0.5;exitDx=0;exitDy=0;" parent="jIGUXJmBeiqp-Y0XQhzE-6" edge="1">
          <mxGeometry width="50" height="50" relative="1" as="geometry">
            <mxPoint x="0.0018462990278749203" y="255.00184629902787" as="sourcePoint" />
            <mxPoint x="696.0018462990279" y="441.0018462990279" as="targetPoint" />
          </mxGeometry>
        </mxCell>
        <mxCell id="jIGUXJmBeiqp-Y0XQhzE-18" value="Ab" style="ellipse;whiteSpace=wrap;html=1;aspect=fixed;fontSize=24;fillColor=#f0a30a;fontColor=#000000;strokeColor=#BD7000;" parent="jIGUXJmBeiqp-Y0XQhzE-6" vertex="1">
          <mxGeometry x="38.001846299027875" y="478.00184629902793" width="60" height="60" as="geometry" />
        </mxCell>
        <mxCell id="jIGUXJmBeiqp-Y0XQhzE-17" value="f" style="ellipse;whiteSpace=wrap;html=1;aspect=fixed;fontSize=24;fillColor=#f0a30a;fontColor=#000000;strokeColor=#BD7000;" parent="jIGUXJmBeiqp-Y0XQhzE-6" vertex="1">
          <mxGeometry x="108.00184629902787" y="438.00184629902793" width="60" height="60" as="geometry" />
        </mxCell>
        <mxCell id="jIGUXJmBeiqp-Y0XQhzE-22" value="F" style="ellipse;whiteSpace=wrap;html=1;aspect=fixed;fontSize=24;fillColor=#6a00ff;fontColor=#ffffff;strokeColor=#3700CC;" parent="jIGUXJmBeiqp-Y0XQhzE-6" vertex="1">
          <mxGeometry x="158.00184629902787" y="38.00184629902793" width="60" height="60" as="geometry" />
        </mxCell>
        <mxCell id="jIGUXJmBeiqp-Y0XQhzE-26" value="e" style="ellipse;whiteSpace=wrap;html=1;aspect=fixed;fontSize=24;fillColor=#6a00ff;fontColor=#ffffff;strokeColor=#3700CC;" parent="jIGUXJmBeiqp-Y0XQhzE-6" vertex="1">
          <mxGeometry x="438.0018462990279" y="108.00184629902793" width="60" height="60" as="geometry" />
        </mxCell>
        <mxCell id="jIGUXJmBeiqp-Y0XQhzE-27" value="g" style="ellipse;whiteSpace=wrap;html=1;aspect=fixed;fontSize=24;gradientColor=#F0A30A;gradientDirection=south;fillColor=#6A00FF;fontColor=#FFFFFF;" parent="jIGUXJmBeiqp-Y0XQhzE-6" vertex="1">
          <mxGeometry x="108.00184629902787" y="198.00184629902793" width="60" height="60" as="geometry" />
        </mxCell>
        <mxCell id="jIGUXJmBeiqp-Y0XQhzE-15" value="c" style="ellipse;whiteSpace=wrap;html=1;aspect=fixed;fontSize=24;fillColor=#f0a30a;fontColor=#000000;strokeColor=#BD7000;" parent="jIGUXJmBeiqp-Y0XQhzE-2" vertex="1">
          <mxGeometry x="90" y="330" width="60" height="60" as="geometry" />
        </mxCell>
        <mxCell id="jIGUXJmBeiqp-Y0XQhzE-19" value="&lt;font style=&quot;color: rgb(255, 255, 255);&quot;&gt;Bb&lt;/font&gt;" style="ellipse;whiteSpace=wrap;html=1;aspect=fixed;fontSize=24;gradientColor=#F0A30A;gradientDirection=south;fillColor=#6A00FF;" parent="jIGUXJmBeiqp-Y0XQhzE-2" vertex="1">
          <mxGeometry x="50" y="170" width="60" height="60" as="geometry" />
        </mxCell>
        <mxCell id="jIGUXJmBeiqp-Y0XQhzE-21" value="Eb" style="ellipse;whiteSpace=wrap;html=1;aspect=fixed;fontSize=24;fillColor=#f0a30a;fontColor=#000000;strokeColor=#BD7000;" parent="jIGUXJmBeiqp-Y0XQhzE-2" vertex="1">
          <mxGeometry x="10" y="330" width="60" height="60" as="geometry" />
        </mxCell>
        <mxCell id="jIGUXJmBeiqp-Y0XQhzE-23" value="&lt;font style=&quot;color: rgb(0, 0, 0);&quot;&gt;d&lt;/font&gt;" style="ellipse;whiteSpace=wrap;html=1;aspect=fixed;fontSize=24;" parent="jIGUXJmBeiqp-Y0XQhzE-2" vertex="1">
          <mxGeometry x="210" y="120" width="60" height="60" as="geometry" />
        </mxCell>
        <mxCell id="jIGUXJmBeiqp-Y0XQhzE-24" value="a" style="ellipse;whiteSpace=wrap;html=1;aspect=fixed;fontSize=24;fillColor=#6a00ff;fontColor=#ffffff;strokeColor=#3700CC;" parent="jIGUXJmBeiqp-Y0XQhzE-2" vertex="1">
          <mxGeometry x="330" y="90" width="60" height="60" as="geometry" />
        </mxCell>
        <mxCell id="jIGUXJmBeiqp-Y0XQhzE-25" value="C" style="ellipse;whiteSpace=wrap;html=1;aspect=fixed;fontSize=24;fillColor=#6a00ff;fontColor=#ffffff;strokeColor=#3700CC;" parent="jIGUXJmBeiqp-Y0XQhzE-2" vertex="1">
          <mxGeometry x="330" y="12" width="60" height="60" as="geometry" />
        </mxCell>
        <mxCell id="e0DbMamYtNXQQcI4MHvC-1" value="" style="rounded=1;whiteSpace=wrap;html=1;" vertex="1" parent="jIGUXJmBeiqp-Y0XQhzE-2">
          <mxGeometry x="270" y="300" width="180" height="120" as="geometry" />
        </mxCell>
        <mxCell id="e0DbMamYtNXQQcI4MHvC-2" value="" style="ellipse;whiteSpace=wrap;html=1;aspect=fixed;fontSize=24;fillColor=#f0a30a;fontColor=#000000;strokeColor=#BD7000;align=center;" vertex="1" parent="jIGUXJmBeiqp-Y0XQhzE-2">
          <mxGeometry x="280" y="310" width="40" height="40" as="geometry" />
        </mxCell>
        <mxCell id="e0DbMamYtNXQQcI4MHvC-3" value="C minor key" style="text;html=1;align=center;verticalAlign=middle;whiteSpace=wrap;rounded=0;fontSize=16;" vertex="1" parent="jIGUXJmBeiqp-Y0XQhzE-2">
          <mxGeometry x="330" y="310" width="100" height="40" as="geometry" />
        </mxCell>
        <mxCell id="e0DbMamYtNXQQcI4MHvC-5" value="F major key" style="text;html=1;align=center;verticalAlign=middle;whiteSpace=wrap;rounded=0;fontSize=16;" vertex="1" parent="jIGUXJmBeiqp-Y0XQhzE-2">
          <mxGeometry x="330" y="370" width="100" height="40" as="geometry" />
        </mxCell>
        <mxCell id="e0DbMamYtNXQQcI4MHvC-6" value="" style="ellipse;whiteSpace=wrap;html=1;aspect=fixed;fontSize=24;fillColor=#6a00ff;fontColor=#ffffff;strokeColor=#3700CC;" vertex="1" parent="jIGUXJmBeiqp-Y0XQhzE-2">
          <mxGeometry x="280" y="370" width="40" height="40" as="geometry" />
        </mxCell>
      </root>
    </mxGraphModel>
  </diagram>
</mxfile>
